<?xml version="1.0" encoding="UTF-8" standalone="no"?><!DOCTYPE svg PUBLIC "-//W3C//DTD SVG 1.1//EN" "http://www.w3.org/Graphics/SVG/1.1/DTD/svg11.dtd"><svg width="100%" height="100%" viewBox="0 0 345 213" version="1.1" xmlns="http://www.w3.org/2000/svg" xmlns:xlink="http://www.w3.org/1999/xlink" xml:space="preserve" xmlns:serif="http://www.serif.com/" style="fill-rule:evenodd;clip-rule:evenodd;stroke-linejoin:round;stroke-miterlimit:2;"><g><path d="M255.326,0.213c-6.717,0.312 -18.174,1.325 -39.509,3.429c-32.319,3.272 -51.441,8.103 -65.744,16.441c-7.269,4.207 -30.457,17.326 -28.526,16.79c0.249,-0.069 5.432,2.007 5.642,1.875c4.998,-3.141 7.617,-4.676 11.954,-7.198c18.854,-10.967 54.077,-20.895 95.243,-20.895l30.027,-0l-3.951,3.272c-2.133,1.87 -10.351,9.428 -18.174,16.908c-17.621,16.831 -24.259,22.519 -28.368,24.311c-9.877,4.207 -29.236,5.532 -78.228,5.22c-27.261,-0.156 -33.996,-0.467 -34.233,-1.168c-0.396,-1.091 11.169,-10.547 23.451,-18.872c15.812,-10.719 1.318,-6.482 -6.26,-1.902c-2.462,1.488 -7.089,4.525 -12.748,7.917c-18.648,11.142 -23.547,13.324 -42.196,19.246c-26.787,8.493 -28.051,9.038 -30.58,13.402c-2.37,4.285 -4.899,12.311 -4.346,13.869c0.632,1.559 8.376,4.13 15.804,5.143c5.847,0.857 6.954,0.857 9.482,-0.312c3.635,-1.714 5.927,-1.636 9.087,0.234c3.003,1.792 7.981,1.948 23.548,0.779c20.386,-1.636 22.915,-2.26 50.334,-12.934c24.417,-9.506 25.365,-9.818 30.185,-9.506c8.613,0.545 8.613,0.779 -0.079,13.402c-4.188,5.999 -8.217,11.609 -8.929,12.311c-1.501,1.48 -38.956,14.726 -42.037,14.804c-1.581,0.078 -15.251,-6 -17.147,-7.558c-0.158,-0.078 0.711,-1.325 1.896,-2.649c1.106,-1.403 1.976,-2.572 1.817,-2.649c-0.158,-0.156 -8.534,0.311 -18.648,0.935l-18.332,1.168l-0.948,2.182c-0.474,1.169 -2.134,3.273 -3.635,4.519c-5.373,4.675 -13.67,2.26 -13.67,-4.051l-0,-2.65l-9.325,-2.805c-5.057,-1.558 -9.798,-3.038 -10.43,-3.35c-0.79,-0.234 -1.738,0.701 -3.003,3.039c-1.027,1.87 -2.923,4.363 -4.188,5.61l-2.291,2.181l-0.079,-2.337c-0.079,-1.247 -0.316,-3.117 -0.632,-4.13c-0.474,-1.714 -0.711,-1.558 -3.635,2.727l-3.161,4.598l-0.395,13.246c-0.395,12.311 -0.316,13.402 1.185,15.505c4.188,6.156 12.801,10.13 25.681,11.844c9.878,1.247 41.643,1.48 58.474,0.312c30.817,-2.104 40.773,-6.546 57.841,-25.558c6.006,-6.623 6.559,-5.376 2.213,5.221c-5.136,12.467 -8.139,17.532 -13.591,22.908c-5.137,5.065 -10.352,7.792 -18.965,9.74c-12.09,2.727 -67.639,0.935 -93.874,-3.039c-13.354,-1.948 -22.125,-6.312 -22.125,-10.909c0,-3.272 -1.185,-4.129 -2.607,-1.948c-0.791,1.091 -1.344,2.572 -1.344,3.351c0,0.779 -0.79,2.961 -1.659,4.909c-1.975,4.207 -2.134,7.947 -0.395,10.441c0.948,1.558 2.766,2.259 8.929,3.662c5.531,1.247 8.771,2.493 11.3,4.285c1.975,1.403 5.373,3.117 7.585,3.818c2.687,0.857 4.425,1.948 5.137,3.273c1.817,3.273 9.166,9.35 14.381,11.844c6.637,3.194 14.697,4.363 21.809,3.194c6.242,-1.013 13.591,-4.207 17.542,-7.558c2.687,-2.337 2.766,-2.337 15.33,-2.883c7.19,-0.312 16.435,-1.247 21.335,-2.104c4.82,-0.935 13.512,-1.792 19.359,-2.026l10.668,-0.389l1.106,3.039c1.738,4.753 5.768,10.441 10.904,15.116c22.916,21.427 58.553,11.61 69.774,-19.246l0.869,-2.338l13.591,-0.935c15.804,-1.012 38.719,-2.883 49.781,-4.051c4.267,-0.39 9.246,-0.779 11.221,-0.779c5.926,-0 6.005,-0.156 3.477,-6.701c-5.926,-14.805 -9.245,-32.726 -9.956,-52.907c-0.554,-16.441 0.632,-31.713 3.318,-43.4c0.949,-4.442 1.66,-8.182 1.581,-8.338c-0.553,-0.467 -27.815,3.974 -40.695,6.701c-7.19,1.481 -13.986,2.883 -15.171,3.117c-2.213,0.39 -2.213,0.39 -2.213,-4.13l0,-4.597l7.981,0.234c4.346,0.156 10.905,-0.078 14.539,-0.623c5.848,-0.779 6.638,-1.091 7.033,-2.727c0.632,-2.338 -0.553,-8.494 -2.133,-10.753c-1.502,-2.338 -6.48,-3.662 -13.355,-3.662c-6.321,-0 -10.588,1.168 -13.038,3.584c-1.027,1.013 -2.054,1.87 -2.212,1.87c-0.237,-0 -0.395,-1.403 -0.395,-3.117c-0,-2.493 0.553,-3.74 2.924,-6.311c7.111,-7.792 20.86,-15.038 35.321,-18.623c9.798,-2.493 22.52,-4.129 28.446,-3.74l3.872,0.234l1.265,5.299l1.264,5.22l4.899,-7.168c2.608,-3.974 7.349,-9.974 10.43,-13.247c3.082,-3.272 5.295,-6.155 4.979,-6.389c-2.924,-1.714 -68.114,-4.052 -88.659,-3.117Zm42.275,6.546c-17.384,3.896 -29.079,10.752 -46.621,27.271c-8.929,8.493 -8.455,7.402 1.659,-3.662c6.48,-7.013 16.278,-14.727 23.153,-18.077c7.981,-3.974 18.569,-6.935 24.97,-6.935c2.449,0 1.817,0.312 -3.161,1.403Zm-78.861,109.942c5.532,2.104 12.643,8.649 15.883,14.571c2.608,4.909 4.425,11.454 5.294,19.401c0.395,4.52 0.316,4.909 -1.106,4.909c-1.106,0 -2.37,-1.636 -4.82,-6.701c-6.084,-12.389 -17.542,-21.271 -30.659,-23.765c-4.899,-0.935 -15.567,-0.623 -18.727,0.546c-3.477,1.246 4.108,-5.299 8.692,-7.558c8.534,-4.13 16.751,-4.597 25.443,-1.403Zm-22.204,25.012c-0.316,1.013 -0.79,5.376 -1.027,9.74c-0.237,4.441 -0.711,8.025 -1.106,8.025c-1.185,0 -4.662,-4.831 -5.452,-7.636c-0.396,-1.558 -0.791,-4.519 -0.791,-6.545c0,-3.506 0.158,-3.74 2.608,-4.441c1.343,-0.39 3.398,-0.779 4.425,-0.779c1.58,-0.078 1.738,0.233 1.343,1.636Zm18.254,3.039l3.555,2.415l-2.686,1.559c-1.423,0.857 -4.82,3.662 -7.428,6.233c-2.687,2.571 -5.294,4.519 -5.689,4.208c-1.028,-0.624 -0.316,-5.533 1.264,-8.649c0.948,-2.026 6.321,-8.182 7.112,-8.182c0.158,0 1.896,1.091 3.872,2.416Zm-35.401,8.649c0.869,1.402 3.556,4.441 5.927,6.779c2.37,2.337 4.188,4.519 3.951,4.908c-1.423,2.26 -10.115,-0.701 -14.382,-5.064l-2.449,-2.494l1.975,-3.35c1.106,-1.792 2.292,-3.273 2.687,-3.273c0.316,0 1.343,1.169 2.291,2.494Zm46.621,6.233c0.316,1.013 0.869,2.961 1.106,4.441l0.554,2.572l-2.845,-0.546c-1.581,-0.233 -5.848,-0.467 -9.482,-0.545c-5.69,-0 -6.638,-0.156 -6.638,-1.247c0,-2.727 7.507,-6.077 14.065,-6.311c1.976,-0.078 2.687,0.311 3.24,1.636Zm-36.743,13.09c1.975,1.87 -5.532,6.078 -12.011,6.701l-4.741,0.546l-0.87,-3.039c-1.58,-5.688 -1.896,-5.532 8.06,-5.143c4.82,0.156 9.166,0.624 9.562,0.935Zm27.577,0.546c3.477,1.714 8.455,5.766 8.455,6.779c-0,0.467 -1.027,2.337 -2.213,4.207l-2.291,3.351l-1.976,-2.961c-1.106,-1.636 -3.871,-4.753 -6.084,-7.013c-2.212,-2.259 -4.03,-4.441 -4.03,-4.909c0,-1.246 5.373,-0.935 8.139,0.546Zm-20.94,6.701c0.869,4.207 -6.4,16.051 -9.166,14.96c-1.896,-0.701 -6.48,-3.818 -6.48,-4.363c0,-0.312 1.344,-1.403 3.003,-2.416c1.581,-1.091 4.741,-3.74 6.875,-5.922c4.03,-3.973 5.373,-4.519 5.768,-2.259Zm10.984,1.48c1.738,2.571 2.212,4.286 2.449,8.883l0.316,5.61l-3.002,0.857c-4.583,1.247 -6.164,1.091 -5.453,-0.545c0.316,-0.702 0.791,-5.065 1.028,-9.74c0.395,-9.506 1.185,-10.363 4.662,-5.065Z" style="fill-rule:nonzero;"/><path d="M131.961,94.405c-3.075,1.65 -4.2,5.025 -2.925,8.475c0.6,1.425 4.125,3.375 6.15,3.375c2.7,0 5.4,-2.85 5.4,-5.775c0,-2.1 -0.225,-2.55 -1.2,-2.175c-1.725,0.675 -4.8,-1.5 -4.8,-3.3c0,-1.725 -0.45,-1.8 -2.625,-0.6Z" style="fill-rule:nonzero;"/></g></svg>